<svg width="104" height="42" viewBox="0 0 104 42" fill="none" xmlns="http://www.w3.org/2000/svg">
<path d="M35.2048 29L28.6671 10.988H32.1861L36.9727 24.6304L41.7592 10.988H45.2782L38.7405 29H35.2048ZM47.616 8.03601V4.65042H51.1016V8.03601H47.616ZM47.616 29V10.988H51.1016V29H47.616ZM60.196 29.5003C58.8617 29.5003 57.7443 29.2557 56.8437 28.7665C55.9431 28.2662 55.2593 27.6102 54.7924 26.7985C54.3365 25.9758 54.1086 25.0752 54.1086 24.0967C54.1086 23.185 54.2698 22.3845 54.5922 21.6951C54.9147 21.0058 55.3928 20.4221 56.0265 19.944C56.6603 19.4547 57.4386 19.06 58.3614 18.7598C59.1619 18.5263 60.0681 18.3206 61.0799 18.1428C62.0917 17.9649 63.1535 17.7981 64.2653 17.6424C65.3883 17.4868 66.5002 17.3311 67.6009 17.1754L66.3334 17.8759C66.3556 16.4639 66.0554 15.4187 65.4328 14.7405C64.8213 14.0511 63.765 13.7065 62.264 13.7065C61.3189 13.7065 60.4517 13.9288 59.6623 14.3736C58.8729 14.8072 58.3225 15.5299 58.0112 16.5417L54.759 15.541C55.2037 13.9955 56.0488 12.7669 57.294 11.8552C58.5504 10.9435 60.2182 10.4876 62.2974 10.4876C63.9096 10.4876 65.3105 10.7656 66.5002 11.3215C67.701 11.8663 68.5793 12.7336 69.1353 13.9233C69.4243 14.5126 69.6022 15.1352 69.669 15.7912C69.7357 16.4472 69.769 17.1532 69.769 17.9093V29H66.6836V24.8806L67.284 25.4143C66.5391 26.793 65.5885 27.8214 64.4321 28.4997C63.2869 29.1668 61.8749 29.5003 60.196 29.5003ZM60.813 26.6484C61.8026 26.6484 62.6532 26.4761 63.3647 26.1314C64.0763 25.7756 64.6489 25.3253 65.0826 24.7805C65.5162 24.2357 65.7997 23.6687 65.9331 23.0794C66.1221 22.5457 66.2278 21.9453 66.25 21.2782C66.2834 20.6111 66.3 20.0774 66.3 19.6771L67.4341 20.0941C66.3334 20.2608 65.3327 20.4109 64.4321 20.5444C63.5315 20.6778 62.7143 20.8112 61.9805 20.9446C61.2578 21.0669 60.6129 21.217 60.0459 21.3949C59.5678 21.5617 59.1397 21.7618 58.7617 21.9953C58.3948 22.2288 58.1001 22.5123 57.8778 22.8459C57.6665 23.1794 57.5609 23.5853 57.5609 24.0634C57.5609 24.5304 57.6776 24.964 57.9111 25.3642C58.1446 25.7534 58.5004 26.0647 58.9785 26.2982C59.4566 26.5317 60.0681 26.6484 60.813 26.6484ZM83.406 29C82.2719 29.2224 81.16 29.3169 80.0704 29.2835C78.9808 29.2502 78.0079 29.0389 77.1518 28.6498C76.2957 28.2606 75.6508 27.6491 75.2172 26.8152C74.828 26.0703 74.6168 25.3142 74.5834 24.547C74.5612 23.7687 74.5501 22.8904 74.5501 21.9119V5.98464H78.0524V21.7452C78.0524 22.4679 78.058 23.0961 78.0691 23.6297C78.0913 24.1634 78.2081 24.6137 78.4193 24.9807C78.8196 25.67 79.4534 26.0647 80.3206 26.1648C81.199 26.2537 82.2274 26.2148 83.406 26.048V29ZM71.0978 13.7898V10.988H83.406V13.7898H71.0978ZM93.2105 29.5003C91.4092 29.5003 89.8471 29.0945 88.524 28.2829C87.2009 27.4712 86.178 26.3538 85.4553 24.9306C84.7437 23.4963 84.3879 21.8452 84.3879 19.9773C84.3879 18.0983 84.7548 16.4472 85.4886 15.024C86.2225 13.5897 87.2509 12.4779 88.574 11.6884C89.8971 10.8879 91.4426 10.4876 93.2105 10.4876C95.0117 10.4876 96.5738 10.8935 97.8969 11.7051C99.22 12.5168 100.243 13.6342 100.966 15.0574C101.688 16.4805 102.05 18.1205 102.05 19.9773C102.05 21.8563 101.683 23.513 100.949 24.9473C100.226 26.3705 99.2033 27.4879 97.8802 28.2995C96.5571 29.1001 95.0005 29.5003 93.2105 29.5003ZM93.2105 26.2148C94.9338 26.2148 96.218 25.6366 97.063 24.4803C97.9192 23.3129 98.3472 21.8119 98.3472 19.9773C98.3472 18.0983 97.9136 16.5973 97.0463 15.4743C96.1902 14.3402 94.9116 13.7732 93.2105 13.7732C92.043 13.7732 91.0813 14.04 90.3252 14.5737C89.5691 15.0963 89.0076 15.8245 88.6407 16.7585C88.2738 17.6813 88.0904 18.7543 88.0904 19.9773C88.0904 21.8675 88.524 23.3796 89.3912 24.5137C90.2585 25.6478 91.5316 26.2148 93.2105 26.2148Z" fill="black"/>
<path d="M16.2164 29.738L16.3426 40M20.352 35.5875L20.3821 38.2045M11.7375 35.6697L11.7676 38.2867M12.1993 29.5454L8.34741 32.2123M8.34741 32.2123C8.34741 32.2123 2.88386 35.7541 2.3952 34.8864C1.90654 34.0186 1.859 29.875 2.32004 28.3438C2.78108 26.8127 8.24218 23.0527 8.24218 23.0527M8.34741 32.2123L8.24218 23.0527M8.24218 23.0527C8.24218 23.0527 9.14152 14.538 10.4848 9.94488C11.828 5.35179 15.2787 1.99951 16.2165 2C17.1543 2.00049 19.5651 5.27796 21.0136 9.84441C22.462 14.4109 23.5568 22.9066 23.5568 22.9066M20.3821 29.5454L23.662 32.0661M23.662 32.0661C23.662 32.0661 29.2057 35.503 29.6743 34.6261C30.143 33.7492 30.0953 29.6056 29.5992 28.0835C29.1031 26.5615 23.5568 22.9066 23.5568 22.9066M23.662 32.0661L23.5568 22.9066M21.6159 16.9157H10.0785" stroke="black" stroke-width="3" stroke-linecap="square"/>
</svg>
