<svg width="501" height="101" viewBox="0 0 501 101" fill="none" xmlns="http://www.w3.org/2000/svg">
<path d="M159.896 37.5739C163.99 37.5739 167.255 38.5976 169.688 40.6449C172.16 42.6922 173.705 45.3962 174.324 48.7569H165.053C164.782 47.4435 164.164 46.4198 163.199 45.6859C162.271 44.9133 161.093 44.527 159.664 44.527C158.544 44.527 157.694 44.7781 157.115 45.2803C156.535 45.7438 156.245 46.4198 156.245 47.3083C156.245 48.3126 156.767 49.0659 157.81 49.5681C158.891 50.0702 160.572 50.5724 162.851 51.0746C165.323 51.654 167.351 52.2527 168.935 52.8708C170.519 53.4502 171.89 54.4159 173.049 55.7679C174.208 57.1199 174.787 58.9355 174.787 61.2145C174.787 63.0687 174.285 64.7104 173.281 66.1397C172.276 67.5689 170.828 68.6891 168.935 69.5003C167.042 70.3115 164.802 70.7171 162.214 70.7171C157.849 70.7171 154.353 69.7514 151.726 67.82C149.099 65.8886 147.496 63.1266 146.917 59.5342H156.477C156.632 60.9248 157.211 61.9871 158.215 62.721C159.258 63.455 160.591 63.8219 162.214 63.8219C163.334 63.8219 164.184 63.5709 164.763 63.0687C165.342 62.5279 165.632 61.8326 165.632 60.9828C165.632 59.8625 165.091 59.0707 164.01 58.6071C162.967 58.1049 161.248 57.5835 158.853 57.0427C156.458 56.5405 154.488 55.9997 152.943 55.4203C151.398 54.8408 150.065 53.9138 148.945 52.639C147.824 51.3257 147.264 49.5487 147.264 47.3083C147.264 44.4112 148.365 42.0741 150.567 40.2972C152.769 38.4817 155.878 37.5739 159.896 37.5739ZM212.432 37.9795V70.3115H202.466V64.4593C201.538 66.3521 200.148 67.8586 198.294 68.9788C196.478 70.0991 194.354 70.6592 191.92 70.6592C188.212 70.6592 185.257 69.4231 183.055 66.9509C180.892 64.4786 179.81 61.0793 179.81 56.7529V37.9795H189.66V55.5362C189.66 57.738 190.22 59.4569 191.341 60.693C192.499 61.8905 194.045 62.4893 195.976 62.4893C197.985 62.4893 199.568 61.8519 200.727 60.5772C201.886 59.3024 202.466 57.4869 202.466 55.1306V37.9795H212.432ZM239.424 37.5739C242.09 37.5739 244.465 38.2499 246.551 39.6019C248.676 40.9153 250.337 42.8274 251.534 45.3382C252.77 47.8105 253.389 50.7462 253.389 54.1455C253.389 57.5062 252.77 60.442 251.534 62.9528C250.337 65.4637 248.676 67.3951 246.551 68.7471C244.465 70.0604 242.09 70.7171 239.424 70.7171C236.952 70.7171 234.828 70.157 233.051 69.0368C231.274 67.9166 229.98 66.3907 229.168 64.4593V85.7243H219.26V37.9795H229.168V43.8317C229.98 41.9003 231.274 40.3745 233.051 39.2543C234.828 38.134 236.952 37.5739 239.424 37.5739ZM236.237 46.2653C234.152 46.2653 232.433 46.98 231.081 48.4092C229.767 49.7998 229.111 51.7119 229.111 54.1455C229.111 56.5405 229.767 58.4526 231.081 59.8818C232.433 61.3111 234.152 62.0257 236.237 62.0257C238.362 62.0257 240.062 61.3304 241.336 59.9398C242.65 58.5492 243.307 56.6177 243.307 54.1455C243.307 51.6733 242.65 49.7419 241.336 48.3513C240.062 46.9606 238.362 46.2653 236.237 46.2653ZM270.814 37.5739C273.286 37.5739 275.411 38.134 277.188 39.2543C278.964 40.3745 280.278 41.9003 281.128 43.8317V37.9795H290.978V70.3115H281.128V64.4593C280.278 66.3907 278.964 67.9166 277.188 69.0368C275.411 70.157 273.286 70.7171 270.814 70.7171C268.148 70.7171 265.754 70.0604 263.629 68.7471C261.543 67.3951 259.882 65.4637 258.646 62.9528C257.448 60.442 256.85 57.5062 256.85 54.1455C256.85 50.7462 257.448 47.8105 258.646 45.3382C259.882 42.8274 261.543 40.9153 263.629 39.6019C265.754 38.2499 268.148 37.5739 270.814 37.5739ZM274.001 46.2653C271.876 46.2653 270.157 46.9606 268.844 48.3513C267.569 49.7419 266.932 51.6733 266.932 54.1455C266.932 56.6177 267.569 58.5492 268.844 59.9398C270.157 61.3304 271.876 62.0257 274.001 62.0257C276.087 62.0257 277.786 61.3111 279.1 59.8818C280.452 58.4526 281.128 56.5405 281.128 54.1455C281.128 51.7119 280.452 49.7998 279.1 48.4092C277.786 46.98 276.087 46.2653 274.001 46.2653ZM309.562 37.5739C313.657 37.5739 316.921 38.5976 319.354 40.6449C321.827 42.6922 323.372 45.3962 323.99 48.7569H314.719C314.449 47.4435 313.831 46.4198 312.865 45.6859C311.938 44.9133 310.76 44.527 309.33 44.527C308.21 44.527 307.36 44.7781 306.781 45.2803C306.201 45.7438 305.912 46.4198 305.912 47.3083C305.912 48.3126 306.433 49.0659 307.476 49.5681C308.558 50.0702 310.238 50.5724 312.517 51.0746C314.989 51.654 317.017 52.2527 318.601 52.8708C320.185 53.4502 321.556 54.4159 322.715 55.7679C323.874 57.1199 324.453 58.9355 324.453 61.2145C324.453 63.0687 323.951 64.7104 322.947 66.1397C321.942 67.5689 320.494 68.6891 318.601 69.5003C316.708 70.3115 314.468 70.7171 311.88 70.7171C307.515 70.7171 304.019 69.7514 301.392 67.82C298.765 65.8886 297.162 63.1266 296.583 59.5342H306.143C306.298 60.9248 306.877 61.9871 307.882 62.721C308.925 63.455 310.257 63.8219 311.88 63.8219C313 63.8219 313.85 63.5709 314.429 63.0687C315.009 62.5279 315.298 61.8326 315.298 60.9828C315.298 59.8625 314.758 59.0707 313.676 58.6071C312.633 58.1049 310.914 57.5835 308.519 57.0427C306.124 56.5405 304.154 55.9997 302.609 55.4203C301.064 54.8408 299.731 53.9138 298.611 52.639C297.491 51.3257 296.931 49.5487 296.931 47.3083C296.931 44.4112 298.032 42.0741 300.233 40.2972C302.435 38.4817 305.545 37.5739 309.562 37.5739ZM348.25 61.794V70.3115H343.788C340.002 70.3115 337.047 69.3844 334.923 67.5303C332.837 65.6375 331.794 62.5279 331.794 58.2015V46.3233H327.448V37.9795H331.794V30.0414H341.702V37.9795H348.192V46.3233H341.702V58.3753C341.702 59.6501 341.953 60.5385 342.455 61.0407C342.996 61.5429 343.885 61.794 345.121 61.794H348.25ZM366.102 37.5739C368.575 37.5739 370.699 38.134 372.476 39.2543C374.253 40.3745 375.566 41.9003 376.416 43.8317V37.9795H386.266V70.3115H376.416V64.4593C375.566 66.3907 374.253 67.9166 372.476 69.0368C370.699 70.157 368.575 70.7171 366.102 70.7171C363.437 70.7171 361.042 70.0604 358.917 68.7471C356.832 67.3951 355.17 65.4637 353.934 62.9528C352.737 60.442 352.138 57.5062 352.138 54.1455C352.138 50.7462 352.737 47.8105 353.934 45.3382C355.17 42.8274 356.832 40.9153 358.917 39.6019C361.042 38.2499 363.437 37.5739 366.102 37.5739ZM369.289 46.2653C367.165 46.2653 365.446 46.9606 364.132 48.3513C362.858 49.7419 362.22 51.6733 362.22 54.1455C362.22 56.6177 362.858 58.5492 364.132 59.9398C365.446 61.3304 367.165 62.0257 369.289 62.0257C371.375 62.0257 373.075 61.3111 374.388 59.8818C375.74 58.4526 376.416 56.5405 376.416 54.1455C376.416 51.7119 375.74 49.7998 374.388 48.4092C373.075 46.98 371.375 46.2653 369.289 46.2653ZM402.996 44.0635C404.233 42.0935 405.816 40.529 407.748 39.3702C409.718 38.2113 411.842 37.6319 414.121 37.6319V48.2354H411.282C408.655 48.2354 406.608 48.7955 405.14 49.9157C403.711 51.0359 402.996 52.9287 402.996 55.5941V70.3115H393.088V37.9795H402.996V44.0635ZM436.578 61.794V70.3115H432.117C428.331 70.3115 425.376 69.3844 423.251 67.5303C421.165 65.6375 420.123 62.5279 420.123 58.2015V46.3233H415.777V37.9795H420.123V30.0414H430.031V37.9795H436.52V46.3233H430.031V58.3753C430.031 59.6501 430.282 60.5385 430.784 61.0407C431.325 61.5429 432.213 61.794 433.449 61.794H436.578ZM472.857 53.2764C472.857 54.0876 472.76 54.976 472.567 55.9417H450.143C450.259 58.3753 450.877 60.1329 451.997 61.2145C453.118 62.2575 454.547 62.779 456.285 62.779C457.753 62.779 458.97 62.412 459.935 61.6781C460.901 60.9441 461.539 59.9977 461.848 58.8389H472.335C471.91 61.118 470.983 63.1653 469.554 64.9808C468.125 66.7577 466.309 68.1676 464.107 69.2106C461.906 70.215 459.453 70.7171 456.749 70.7171C453.581 70.7171 450.761 70.0604 448.289 68.7471C445.855 67.3951 443.943 65.4637 442.553 62.9528C441.162 60.442 440.467 57.5062 440.467 54.1455C440.467 50.7462 441.143 47.8105 442.495 45.3382C443.885 42.8274 445.817 40.9153 448.289 39.6019C450.761 38.2499 453.581 37.5739 456.749 37.5739C459.955 37.5739 462.775 38.2306 465.208 39.544C467.642 40.8574 469.515 42.7115 470.829 45.1065C472.181 47.4628 472.857 50.1861 472.857 53.2764ZM462.833 51.7699C462.871 49.6453 462.292 48.0616 461.094 47.0186C459.935 45.937 458.487 45.3962 456.749 45.3962C454.933 45.3962 453.427 45.937 452.229 47.0186C451.032 48.1002 450.356 49.6839 450.201 51.7699H462.833ZM487.93 44.0635C489.166 42.0935 490.75 40.529 492.681 39.3702C494.651 38.2113 496.776 37.6319 499.055 37.6319V48.2354H496.216C493.589 48.2354 491.542 48.7955 490.074 49.9157C488.645 51.0359 487.93 52.9287 487.93 55.5941V70.3115H478.022V37.9795H487.93V44.0635Z" fill="#17216E"/>
<path d="M44.7426 36.8455C52.1825 32.5511 64.2451 32.5511 71.685 36.8455L110.848 59.4503C118.288 63.7447 118.288 70.7072 110.848 75.0016L71.685 97.6064C64.2451 101.901 52.1825 101.901 44.7426 97.6064L5.57996 75.0016C-1.85999 70.7072 -1.85998 63.7447 5.57997 59.4503L44.7426 36.8455Z" fill="#1C2988" fill-opacity="0.3"/>
<path d="M44.7426 20.0331C52.1825 15.7387 64.2451 15.7388 71.685 20.0331L110.848 42.638C118.288 46.9323 118.288 53.8949 110.848 58.1893L71.685 80.7941C64.2451 85.0885 52.1825 85.0885 44.7426 80.7941L5.57996 58.1893C-1.85999 53.8949 -1.85998 46.9323 5.57997 42.638L44.7426 20.0331Z" fill="#1C2988" fill-opacity="0.6"/>
<path d="M44.7426 3.22078C52.1825 -1.0736 64.2451 -1.07359 71.685 3.22078L110.848 25.8256C118.288 30.12 118.288 37.0826 110.848 41.3769L71.685 63.9818C64.2451 68.2761 52.1825 68.2761 44.7426 63.9818L5.57996 41.3769C-1.85999 37.0825 -1.85998 30.12 5.57997 25.8256L44.7426 3.22078Z" fill="#1C2988"/>
<path fill-rule="evenodd" clip-rule="evenodd" d="M78.893 15.6644C79.1172 15.8229 79.2719 16.0239 79.3385 16.2431C80.0584 18.6017 80.0584 20.4476 80.048 22.2935C80.048 29.8155 74.3082 34.3643 66.7886 37.7558V45.4038C66.7894 46.0563 66.5329 46.696 66.048 47.2511C65.5631 47.8062 64.8689 48.2547 64.0435 48.5462L53.8192 52.1641C53.4401 52.2976 53.0191 52.3604 52.596 52.3466C52.1729 52.3327 51.7619 52.2427 51.4018 52.085C51.0417 51.9274 50.7446 51.7072 50.5386 51.4456C50.3326 51.1839 50.2245 50.8894 50.2247 50.5899V42.9837L47.897 44.6296C47.5892 44.8473 47.2237 45.02 46.8215 45.1378C46.4193 45.2557 45.9881 45.3163 45.5528 45.3163C45.1174 45.3163 44.6863 45.2557 44.284 45.1378C43.8818 45.02 43.5164 44.8473 43.2085 44.6296L37.9358 40.9004C37.3143 40.4609 36.9652 39.8647 36.9652 39.2432C36.9652 38.6216 37.3143 38.0254 37.9358 37.5859L40.2635 35.9399H29.514C29.0904 35.9401 28.6737 35.8637 28.3035 35.718C27.9333 35.5723 27.622 35.3621 27.399 35.1074C27.1759 34.8527 27.0487 34.5619 27.0292 34.2626C27.0098 33.9634 27.0988 33.6655 27.2879 33.3974L32.4073 26.1604C32.8204 25.5776 33.4544 25.0876 34.2386 24.7449C35.0228 24.4023 35.9263 24.2205 36.8481 24.22H47.6422C52.427 18.8874 58.8391 14.844 69.5296 14.844C72.1297 14.844 74.7391 14.844 78.0747 15.3494C78.3847 15.3965 78.6688 15.5059 78.893 15.6644ZM64.4969 26.6562C65.1783 26.9781 65.9794 27.15 66.799 27.15C67.8979 27.15 68.9518 26.8413 69.7289 26.2918C70.506 25.7423 70.9425 24.9971 70.9425 24.22C70.9425 23.6405 70.6995 23.074 70.2442 22.5922C69.7889 22.1103 69.1418 21.7348 68.3846 21.513C67.6275 21.2912 66.7944 21.2332 65.9906 21.3463C65.1868 21.4593 64.4485 21.7384 63.869 22.1482C63.2895 22.5579 62.8949 23.08 62.735 23.6484C62.5751 24.2167 62.6572 24.8058 62.9708 25.3412C63.2844 25.8766 63.8155 26.3342 64.4969 26.6562ZM60.0023 27.4945C60.7843 27.3681 61.2991 28.0459 60.722 28.442L53.8863 33.1338L50.136 30.4003C49.4915 29.9305 49.8305 29.1382 50.7388 28.9915L60.0023 27.4945ZM50.5734 36.8507C49.7906 36.9791 49.273 36.3004 49.8511 35.9036L57.0313 30.9753L60.9576 33.8372C61.6009 34.3061 61.2646 35.0968 60.3587 35.2454L50.5734 36.8507Z" fill="#FFB8B8"/>
</svg>
